<svg width="21" height="21" viewBox="0 0 21 21" fill="none" xmlns="http://www.w3.org/2000/svg">
<path d="M10.0566 20.9729C4.53364 20.9729 0.0566406 16.4959 0.0566406 10.9729C0.0566406 5.4499 4.53364 0.9729 10.0566 0.9729C15.5796 0.9729 20.0566 5.4499 20.0566 10.9729C20.0566 16.4959 15.5796 20.9729 10.0566 20.9729ZM10.0566 18.9729C12.1784 18.9729 14.2132 18.13 15.7135 16.6298C17.2138 15.1295 18.0566 13.0946 18.0566 10.9729C18.0566 8.85117 17.2138 6.81634 15.7135 5.31605C14.2132 3.81576 12.1784 2.9729 10.0566 2.9729C7.93491 2.9729 5.90008 3.81576 4.39979 5.31605C2.8995 6.81634 2.05664 8.85117 2.05664 10.9729C2.05664 13.0946 2.8995 15.1295 4.39979 16.6298C5.90008 18.13 7.93491 18.9729 10.0566 18.9729ZM10.0566 9.5589L12.8846 6.7299L14.2996 8.1449L11.4706 10.9729L14.2996 13.8009L12.8846 15.2159L10.0566 12.3869L7.22864 15.2159L5.81364 13.8009L8.64264 10.9729L5.81364 8.1449L7.22864 6.7299L10.0566 9.5589Z" fill="#0084A1"/>
</svg>
