<svg width="25" height="25" viewBox="0 0 25 25" fill="none" xmlns="http://www.w3.org/2000/svg">
<g clip-path="url(#clip0_263_1473)">
<path d="M14.414 15.2802C14.2537 15.3193 14.0923 15.354 13.93 15.3842C13.0494 15.5499 12.1453 15.5466 11.266 15.3742C11.112 15.3442 10.894 15.2912 10.613 15.2162L9.692 16.4132C7.419 16.3402 6.555 14.8172 6.555 14.8172C6.555 11.4362 8.036 8.6952 8.036 8.6952C9.517 7.5622 10.926 7.5932 10.926 7.5932L11.329 8.1182C11.3661 8.11299 11.4035 8.10965 11.441 8.1082C12.2092 8.00637 12.9877 8.00973 13.755 8.1182L14.197 7.5932C14.197 7.5932 15.607 7.5622 17.087 8.6962C17.087 8.6962 18.569 11.4362 18.569 14.8172C18.569 14.8172 17.694 16.3392 15.421 16.4132L14.414 15.2802ZM10.576 11.7002C9.975 11.7002 9.5 12.1502 9.5 12.7002C9.5 13.2502 9.985 13.7002 10.576 13.7002C11.176 13.7002 11.651 13.2502 11.651 12.7002C11.661 12.1502 11.177 11.7002 10.576 11.7002ZM14.424 11.7002C13.824 11.7002 13.349 12.1502 13.349 12.7002C13.349 13.2502 13.834 13.7002 14.424 13.7002C15.025 13.7002 15.5 13.2502 15.5 12.7002C15.5 12.1502 15.025 11.7002 14.424 11.7002ZM21.5 23.7002L16.51 18.7002H19.5V4.7002H5.5V18.7002H16.503L17.073 20.7002H5.5C4.96957 20.7002 4.46086 20.4895 4.08579 20.1144C3.71071 19.7393 3.5 19.2306 3.5 18.7002V4.7002C3.5 4.16976 3.71071 3.66105 4.08579 3.28598C4.46086 2.91091 4.96957 2.7002 5.5 2.7002H19.5C20.0304 2.7002 20.5391 2.91091 20.9142 3.28598C21.2893 3.66105 21.5 4.16976 21.5 4.7002V23.7002Z" fill="white"/>
</g>
<defs>
<clipPath id="clip0_263_1473">
<rect width="24" height="24" fill="white" transform="translate(0.5 0.700195)"/>
</clipPath>
</defs>
</svg>
