<svg width="21" height="21" viewBox="0 0 21 21" fill="none" xmlns="http://www.w3.org/2000/svg">
<g id="Frame" clip-path="url(#clip0_228_4413)">
<path id="Vector" d="M4.66667 4.33659V11.9908C4.66668 12.5395 4.80215 13.0797 5.06105 13.5635C5.31996 14.0473 5.69429 14.4597 6.15083 14.7641L10.5 17.6641L14.8492 14.7641C15.3056 14.4598 15.6799 14.0475 15.9388 13.5639C16.1977 13.0802 16.3332 12.5402 16.3333 11.9916V4.33659L10.5 3.04159L4.66667 4.33659ZM3.6525 2.85492L10.5 1.33325L17.3475 2.85492C17.5326 2.89606 17.698 2.99906 17.8167 3.14692C17.9353 3.29479 18 3.47868 18 3.66825V11.9908C17.9999 12.8139 17.7967 13.6242 17.4082 14.3499C17.0198 15.0756 16.4582 15.6942 15.7733 16.1508L10.5 19.6666L5.22667 16.1508C4.54189 15.6943 3.98038 15.0758 3.59196 14.3503C3.20353 13.6248 3.0002 12.8146 3 11.9916V3.66825C3.00003 3.47868 3.0647 3.29479 3.18332 3.14692C3.30195 2.99906 3.46745 2.89606 3.6525 2.85492ZM10.5 11.7499L8.05083 13.0374L8.51833 10.3108L6.5375 8.37909L9.27583 7.98075L10.5 5.49992L11.725 7.98075L14.4625 8.37909L12.4817 10.3108L12.9483 13.0374L10.5 11.7499Z" fill="white"/>
</g>
<defs>
<clipPath id="clip0_228_4413">
<rect width="20" height="20" fill="white" transform="translate(0.5 0.5)"/>
</clipPath>
</defs>
</svg>
