<svg width="25" height="25" viewBox="0 0 25 25" fill="none" xmlns="http://www.w3.org/2000/svg">
<g clip-path="url(#clip0_263_1452)">
<path d="M3.5 3.7002H21.5C21.7652 3.7002 22.0196 3.80555 22.2071 3.99309C22.3946 4.18062 22.5 4.43498 22.5 4.7002V20.7002C22.5 20.9654 22.3946 21.2198 22.2071 21.4073C22.0196 21.5948 21.7652 21.7002 21.5 21.7002H3.5C3.23478 21.7002 2.98043 21.5948 2.79289 21.4073C2.60536 21.2198 2.5 20.9654 2.5 20.7002V4.7002C2.5 4.43498 2.60536 4.18062 2.79289 3.99309C2.98043 3.80555 3.23478 3.7002 3.5 3.7002ZM20.5 7.9382L12.572 15.0382L4.5 7.9162V19.7002H20.5V7.9382ZM5.011 5.7002L12.561 12.3622L20.002 5.7002H5.011Z" fill="white"/>
</g>
<defs>
<clipPath id="clip0_263_1452">
<rect width="24" height="24" fill="white" transform="translate(0.5 0.700195)"/>
</clipPath>
</defs>
</svg>
