<svg width="19" height="17" viewBox="0 0 19 17" fill="none" xmlns="http://www.w3.org/2000/svg">
<path d="M12 0.940801C12.5853 0.940731 13.1602 1.09474 13.6671 1.38735C14.1739 1.67996 14.5948 2.10086 14.8873 2.60771C15.1799 3.11457 15.3339 3.68952 15.3338 4.27476C15.3337 4.85999 15.1795 5.43489 14.8867 5.94163L18.6667 5.9408V7.60747H17V15.9408C17 16.1618 16.9122 16.3738 16.756 16.5301C16.5997 16.6863 16.3877 16.7741 16.1667 16.7741H2.83337C2.61236 16.7741 2.4004 16.6863 2.24412 16.5301C2.08784 16.3738 2.00004 16.1618 2.00004 15.9408V7.60747H0.333374V5.9408L4.11337 5.94163C3.69993 5.22571 3.56728 4.38168 3.74119 3.57345C3.91511 2.76521 4.38316 2.05044 5.05449 1.56793C5.72581 1.08542 6.55248 0.869592 7.374 0.962367C8.19551 1.05514 8.95324 1.44989 9.50004 2.06997C9.8122 1.71445 10.1968 1.42978 10.6279 1.23503C11.0591 1.04029 11.5269 0.939967 12 0.940801ZM8.66671 7.60747H3.66671V15.1075H8.66671V7.60747ZM15.3334 7.60747H10.3334V15.1075H15.3334V7.60747ZM7.00004 2.60747C6.56755 2.60553 6.15125 2.77179 5.83908 3.07112C5.52691 3.37044 5.34332 3.7794 5.32709 4.21158C5.31086 4.64377 5.46327 5.06534 5.75212 5.38723C6.04096 5.70913 6.44363 5.90613 6.87504 5.93663L7.00004 5.9408H8.66671V4.27413C8.66673 3.87585 8.52411 3.49073 8.2647 3.18852C8.00529 2.8863 7.64623 2.68697 7.25254 2.62663L7.12421 2.61163L7.00004 2.60747ZM12 2.60747C11.5796 2.60733 11.1746 2.76614 10.8663 3.05205C10.5579 3.33796 10.3691 3.72984 10.3375 4.14913L10.3334 4.27413V5.9408H12C12.4205 5.94093 12.8255 5.78213 13.1338 5.49622C13.4421 5.21031 13.631 4.81843 13.6625 4.39913L13.6667 4.27413C13.6667 3.83211 13.4911 3.40818 13.1786 3.09562C12.866 2.78306 12.4421 2.60747 12 2.60747Z" fill="white"/>
</svg>
