<svg width="21" height="22" viewBox="0 0 21 22" fill="none" xmlns="http://www.w3.org/2000/svg">
<path d="M16.0734 15.5899L20.3665 19.8719L18.9481 21.2869L14.6561 17.0039C13.0591 18.2811 11.0727 18.9758 9.02596 18.9729C4.04633 18.9729 0.00488281 14.9409 0.00488281 9.9729C0.00488281 5.0049 4.04633 0.9729 9.02596 0.9729C14.0056 0.9729 18.047 5.0049 18.047 9.9729C18.0499 12.0149 17.3536 13.9966 16.0734 15.5899ZM14.0627 14.8479C15.3348 13.5428 16.0452 11.7933 16.0424 9.9729C16.0424 6.1049 12.902 2.9729 9.02596 2.9729C5.1489 2.9729 2.00957 6.1049 2.00957 9.9729C2.00957 13.8399 5.1489 16.9729 9.02596 16.9729C10.8507 16.9758 12.6042 16.267 13.9124 14.9979L14.0627 14.8479Z" fill="#0084A1"/>
</svg>
