<svg width="15" height="19" viewBox="0 0 15 19" fill="none" xmlns="http://www.w3.org/2000/svg">
<path d="M1.66667 3.11088V10.765C1.66668 11.3138 1.80215 11.854 2.06105 12.3378C2.31996 12.8216 2.69429 13.234 3.15083 13.5384L7.5 16.4384L11.8492 13.5384C12.3056 13.2341 12.6799 12.8218 12.9388 12.3382C13.1977 11.8545 13.3332 11.3145 13.3333 10.7659V3.11088L7.5 1.81588L1.66667 3.11088ZM0.6525 1.62921L7.5 0.107544L14.3475 1.62921C14.5326 1.67035 14.698 1.77335 14.8167 1.92121C14.9353 2.06908 15 2.25297 15 2.44254V10.765C14.9999 11.5882 14.7967 12.3985 14.4082 13.1242C14.0198 13.8499 13.4582 14.4685 12.7733 14.925L7.5 18.4409L2.22667 14.925C1.54189 14.4686 0.980384 13.8501 0.591957 13.1246C0.20353 12.399 0.000196964 11.5888 0 10.7659V2.44254C3.25315e-05 2.25297 0.0646983 2.06908 0.183325 1.92121C0.301951 1.77335 0.467447 1.67035 0.6525 1.62921ZM7.5 10.5242L5.05083 11.8117L5.51833 9.08504L3.5375 7.15338L6.27583 6.75504L7.5 4.27421L8.725 6.75504L11.4625 7.15338L9.48167 9.08504L9.94833 11.8117L7.5 10.5242Z" fill="white"/>
</svg>
