<svg width="25" height="25" viewBox="0 0 25 25" fill="none" xmlns="http://www.w3.org/2000/svg">
<g clip-path="url(#clip0_263_1467)">
<path d="M12.5 20.7002C14.6217 20.7002 16.6566 19.8573 18.1569 18.357C19.6571 16.8568 20.5 14.8219 20.5 12.7002C20.5 10.5785 19.6571 8.54363 18.1569 7.04334C16.6566 5.54305 14.6217 4.7002 12.5 4.7002C10.3783 4.7002 8.34344 5.54305 6.84315 7.04334C5.34285 8.54363 4.5 10.5785 4.5 12.7002C4.5 14.8219 5.34285 16.8568 6.84315 18.357C8.34344 19.8573 10.3783 20.7002 12.5 20.7002ZM12.5 22.7002C6.977 22.7002 2.5 18.2232 2.5 12.7002C2.5 7.1772 6.977 2.7002 12.5 2.7002C18.023 2.7002 22.5 7.1772 22.5 12.7002C22.5 18.2232 18.023 22.7002 12.5 22.7002ZM9.39 13.8702L6.892 13.0912C6.352 12.9262 6.349 12.5542 7.013 12.2872L16.746 8.5272C17.311 8.2972 17.631 8.58819 17.448 9.31719L15.791 17.1372C15.675 17.6942 15.34 17.8272 14.875 17.5702L12.324 15.6822L11.135 16.8302C11.013 16.9482 10.914 17.0492 10.726 17.0742C10.539 17.1002 10.385 17.0442 10.272 16.7342L9.402 13.8632L9.39 13.8702Z" fill="white"/>
</g>
<defs>
<clipPath id="clip0_263_1467">
<rect width="24" height="24" fill="white" transform="translate(0.5 0.700195)"/>
</clipPath>
</defs>
</svg>
