<svg width="26" height="26" viewBox="0 0 26 26" fill="none" xmlns="http://www.w3.org/2000/svg">
<path d="M13.4082 22.6165C16.0604 22.6165 18.6039 21.5629 20.4793 19.6875C22.3546 17.8122 23.4082 15.2686 23.4082 12.6165C23.4082 9.96429 22.3546 7.42075 20.4793 5.54539C18.6039 3.67002 16.0604 2.61646 13.4082 2.61646C10.756 2.61646 8.2125 3.67002 6.33714 5.54539C4.46177 7.42075 3.4082 9.96429 3.4082 12.6165C3.4082 15.2686 4.46177 17.8122 6.33714 19.6875C8.2125 21.5629 10.756 22.6165 13.4082 22.6165ZM13.4082 25.1165C6.50445 25.1165 0.908203 19.5202 0.908203 12.6165C0.908203 5.71271 6.50445 0.116455 13.4082 0.116455C20.312 0.116455 25.9082 5.71271 25.9082 12.6165C25.9082 19.5202 20.312 25.1165 13.4082 25.1165ZM9.5207 14.079L6.3982 13.1052C5.7232 12.899 5.71945 12.434 6.54945 12.1002L18.7157 7.40021C19.422 7.11271 19.822 7.47645 19.5932 8.3877L17.522 18.1627C17.377 18.859 16.9582 19.0252 16.377 18.704L13.1882 16.344L11.702 17.779C11.5495 17.9265 11.4257 18.0527 11.1907 18.084C10.957 18.1165 10.7645 18.0465 10.6232 17.659L9.5357 14.0702L9.5207 14.079Z" fill="white"/>
</svg>
