<svg width="24" height="25" viewBox="0 0 24 25" fill="none" xmlns="http://www.w3.org/2000/svg">
<g clip-path="url(#clip0_263_1476)">
<path d="M12 22.7002C6.48 22.7002 2 18.2202 2 12.7002C2 7.18019 6.48 2.7002 12 2.7002C17.52 2.7002 22 7.18019 22 12.7002C22 18.2202 17.52 22.7002 12 22.7002ZM12 4.7002C7.58 4.7002 4 8.2802 4 12.7002C4 17.1202 7.58 20.7002 12 20.7002C16.42 20.7002 20 17.1202 20 12.7002C20 8.2802 16.42 4.7002 12 4.7002ZM11 12.7002H8L12 8.7002L16 12.7002L13 12.7002L13 16.7002H11L11 12.7002Z" fill="white"/>
</g>
<defs>
<clipPath id="clip0_263_1476">
<rect width="24" height="24" fill="white" transform="matrix(-1 0 0 -1 24 24.7002)"/>
</clipPath>
</defs>
</svg>
