<svg width="25" height="25" viewBox="0 0 25 25" fill="none" xmlns="http://www.w3.org/2000/svg">
<g clip-path="url(#clip0_263_1470)">
<path d="M15.8 6.25031C15.04 6.25018 14.3103 6.54843 13.7679 7.08088C13.2256 7.61332 12.9139 8.3374 12.9 9.09731L12.872 10.6723C12.8704 10.7569 12.8509 10.8401 12.8148 10.9166C12.7787 10.9931 12.7269 11.0611 12.6627 11.1162C12.5985 11.1712 12.5233 11.2121 12.4422 11.2361C12.3611 11.26 12.2758 11.2666 12.192 11.2553L10.631 11.0433C8.57702 10.7633 6.60902 9.81731 4.72102 8.24431C4.12302 11.5543 5.29102 13.8473 8.10402 15.6163L9.85102 16.7143C9.93403 16.7665 10.003 16.8382 10.0519 16.9232C10.1007 17.0081 10.1281 17.1038 10.1314 17.2018C10.1348 17.2998 10.1141 17.3971 10.0711 17.4852C10.0282 17.5733 9.96426 17.6496 9.88502 17.7073L8.29302 18.8703C9.24002 18.9293 10.139 18.8873 10.885 18.7393C15.603 17.7973 18.74 14.2473 18.74 8.39131C18.74 7.91331 17.728 6.25031 15.8 6.25031ZM10.9 9.06031C10.9175 8.09636 11.2189 7.15898 11.7666 6.36553C12.3142 5.57208 13.0838 4.95783 13.9789 4.59968C14.8741 4.24152 15.8549 4.15539 16.7988 4.35206C17.7426 4.54872 18.6074 5.01945 19.285 5.70531C19.996 5.70031 20.601 5.88031 21.954 5.06031C21.619 6.70031 21.454 7.41231 20.74 8.39131C20.74 16.0333 16.043 19.7493 11.277 20.7003C8.00902 21.3523 3.25702 20.2813 1.89502 18.8593C2.58902 18.8053 5.40902 18.5023 7.03902 17.3093C5.66002 16.4003 0.17102 13.1703 3.77802 4.48631C5.47102 6.46331 7.18802 7.80931 8.92802 8.52331C10.086 8.99831 10.37 8.98831 10.901 9.06131L10.9 9.06031Z" fill="white"/>
</g>
<defs>
<clipPath id="clip0_263_1470">
<rect width="24" height="24" fill="white" transform="translate(0.5 0.700195)"/>
</clipPath>
</defs>
</svg>
