<svg width="25" height="25" viewBox="0 0 25 25" fill="none" xmlns="http://www.w3.org/2000/svg">
<g clip-path="url(#clip0_263_1449)">
<path d="M7.75301 19.1942L8.47701 19.6172C9.69795 20.3293 11.0866 20.7031 12.5 20.7002C14.0823 20.7002 15.629 20.231 16.9446 19.352C18.2602 18.4729 19.2855 17.2235 19.8911 15.7617C20.4966 14.2999 20.655 12.6913 20.3463 11.1395C20.0376 9.58763 19.2757 8.16216 18.1569 7.04334C17.038 5.92452 15.6126 5.1626 14.0607 4.85391C12.5089 4.54523 10.9004 4.70366 9.43855 5.30916C7.97674 5.91466 6.72731 6.94004 5.84826 8.25563C4.96921 9.57123 4.50001 11.1179 4.50001 12.7002C4.50001 14.1362 4.87701 15.5132 5.58401 16.7242L6.00601 17.4482L5.35301 19.8492L7.75301 19.1942ZM2.50401 22.7002L3.85601 17.7322C2.96515 16.2051 2.49711 14.4682 2.50001 12.7002C2.50001 7.1772 6.97701 2.7002 12.5 2.7002C18.023 2.7002 22.5 7.1772 22.5 12.7002C22.5 18.2232 18.023 22.7002 12.5 22.7002C10.7328 22.703 8.99667 22.2354 7.47001 21.3452L2.50401 22.7002ZM8.89101 8.0082C9.02501 7.9982 9.16001 7.9982 9.29401 8.0042C9.34801 8.0082 9.40201 8.0142 9.45601 8.0202C9.61501 8.0382 9.79001 8.1352 9.84901 8.2692C10.147 8.9452 10.437 9.6262 10.717 10.3092C10.779 10.4612 10.742 10.6562 10.624 10.8462C10.5429 10.9747 10.4551 11.0988 10.361 11.2182C10.248 11.3632 10.005 11.6292 10.005 11.6292C10.005 11.6292 9.90601 11.7472 9.94401 11.8942C9.95801 11.9502 10.004 12.0312 10.046 12.0992L10.105 12.1942C10.361 12.6212 10.705 13.0542 11.125 13.4622C11.245 13.5782 11.362 13.6972 11.488 13.8082C11.956 14.2212 12.486 14.5582 13.058 14.8082L13.063 14.8102C13.148 14.8472 13.191 14.8672 13.315 14.9202C13.377 14.9462 13.441 14.9692 13.506 14.9862C13.5732 15.0033 13.6439 15.0001 13.7093 14.9769C13.7746 14.9538 13.8316 14.9118 13.873 14.8562C14.597 13.9792 14.663 13.9222 14.669 13.9222V13.9242C14.7193 13.8773 14.7791 13.8417 14.8443 13.8198C14.9095 13.7979 14.9786 13.7902 15.047 13.7972C15.107 13.8012 15.168 13.8122 15.224 13.8372C15.755 14.0802 16.624 14.4592 16.624 14.4592L17.206 14.7202C17.304 14.7672 17.393 14.8782 17.396 14.9852C17.4 15.0522 17.406 15.1602 17.383 15.3582C17.351 15.6172 17.273 15.9282 17.195 16.0912C17.1416 16.2024 17.0707 16.3044 16.985 16.3932C16.8841 16.4991 16.7736 16.5956 16.655 16.6812C16.614 16.7121 16.5723 16.7421 16.53 16.7712C16.4056 16.8501 16.2778 16.9235 16.147 16.9912C15.8895 17.128 15.6052 17.2065 15.314 17.2212C15.129 17.2312 14.944 17.2452 14.758 17.2352C14.75 17.2352 14.19 17.1482 14.19 17.1482C12.7683 16.7742 11.4534 16.0737 10.35 15.1022C10.124 14.9032 9.91501 14.6892 9.70101 14.4762C8.81101 13.5912 8.13901 12.6362 7.73101 11.7342C7.52218 11.2915 7.40938 10.8096 7.40001 10.3202C7.39589 9.71305 7.59436 9.12186 7.96401 8.6402C8.03701 8.5462 8.10601 8.4482 8.22501 8.3352C8.35201 8.2152 8.43201 8.1512 8.51901 8.1072C8.63469 8.04923 8.76088 8.01521 8.89001 8.0072L8.89101 8.0082Z" fill="white"/>
</g>
<defs>
<clipPath id="clip0_263_1449">
<rect width="24" height="24" fill="white" transform="translate(0.5 0.700195)"/>
</clipPath>
</defs>
</svg>
